# xmcd
# 
# Track frame offsets:
#     182
#     22522
#     45695
#     66042
#     90030
#     107947
#     127340
#     149647
#     172495
#     192582
# 
# Disc length: 2868
# 
# Revision: 8
# Processed by: cddbd v1.5.2PL0 Copyright (c) Steve Scherf et al.
# Submitted via: fre:ac v1.0.17
# 
DISCID=910b320a
DTITLE=Eddie Santiago - Oro Salsero {CD 1}
DYEAR=1994
DGENRE=Salsa
TTITLE0=Lluvia
TTITLE1=Quiero Amarte En La Yerba
TTITLE2=De Profesion: Tu Amante
TTITLE3=Antidoto Y Veneno
TTITLE4=Voy A Robarme Una Luna
TTITLE5=Una Nueva Oportunidad
TTITLE6=Todo Empezo
TTITLE7=Me Fallaste
TTITLE8=Jugue Y Perdi
TTITLE9=Tu Me Quemas
EXTD=YEAR: 1994
EXTT0=
EXTT1=
EXTT2=
EXTT3=
EXTT4=
EXTT5=
EXTT6=
EXTT7=
EXTT8=
EXTT9=
PLAYORDER=
